<?xml version="1.0" encoding="UTF-8" standalone="no"?>
<!-- Created with Inkscape (http://www.inkscape.org/) -->

<svg
   version="1.1"
   id="svg9"
   width="512"
   height="512"
   viewBox="0 0 512 512"
   sodipodi:docname="info_about_me.svg"
   inkscape:version="1.2.2 (732a01da63, 2022-12-09)"
   xmlns:inkscape="http://www.inkscape.org/namespaces/inkscape"
   xmlns:sodipodi="http://sodipodi.sourceforge.net/DTD/sodipodi-0.dtd"
   xmlns="http://www.w3.org/2000/svg"
   xmlns:svg="http://www.w3.org/2000/svg">
  <defs
     id="defs13" />
  <sodipodi:namedview
     id="namedview11"
     pagecolor="#ffffff"
     bordercolor="#000000"
     borderopacity="0.25"
     inkscape:showpageshadow="2"
     inkscape:pageopacity="0.0"
     inkscape:pagecheckerboard="0"
     inkscape:deskcolor="#d1d1d1"
     showgrid="false"
     inkscape:zoom="2.2773438"
     inkscape:cx="166.42196"
     inkscape:cy="256"
     inkscape:window-width="2560"
     inkscape:window-height="1369"
     inkscape:window-x="-8"
     inkscape:window-y="-8"
     inkscape:window-maximized="1"
     inkscape:current-layer="g15" />
  <g
     inkscape:groupmode="layer"
     inkscape:label="Image"
     id="g15">
    <path
       style="display:inline;fill:#000000"
       d="m 354.19553,490.1941 c -46.48581,-9.75596 -80.50755,-44.57847 -89.07191,-91.16838 -1.74913,-9.51524 -1.54589,-28.99465 0.40765,-39.07107 10.35067,-53.38915 55.65765,-91.08221 109.66426,-91.235 13.39728,-0.0379 23.09858,1.44336 35.15443,5.36761 39.34681,12.80761 67.72531,45.70717 75.42264,87.43846 2.37559,12.87933 1.52421,33.49255 -1.93202,46.77735 -3.03482,11.66498 -9.60279,25.94156 -16.57321,36.02462 -6.09091,8.81082 -20.16077,22.73649 -28.94923,28.65255 -9.4212,6.342 -23.76629,12.80653 -34.84526,15.70282 -13.26853,3.46869 -36.54806,4.18253 -49.27735,1.51104 z m 28.03004,-42.41838 c 2.4496,-1.2375 5.46995,-3.77905 6.71189,-5.64788 2.22516,-3.34837 2.25807,-3.85993 2.25807,-35.10212 0,-31.21169 -0.035,-31.75702 -2.25145,-35.10212 -3.2379,-4.88665 -10.51956,-8.28131 -15.83672,-7.38298 -5.29016,0.89376 -11.50488,6.35958 -12.88643,11.33356 -1.30842,4.71065 -1.33354,57.5022 -0.0296,62.1959 1.70613,6.14142 8.83648,11.58688 15.54231,11.86969 1.12096,0.0473 4.04233,-0.92655 6.49193,-2.16405 z m -0.53342,-95.19895 c 9.692,-2.91686 16.64866,-13.81274 15.01032,-23.50996 -1.82596,-10.80779 -12.33022,-18.85518 -23.15356,-17.73811 -3.55491,0.3669 -6.97544,1.50468 -9.4534,3.14451 -14.99449,9.92289 -12.10272,32.06638 4.98509,38.17289 4.72549,1.6887 6.8081,1.67726 12.61155,-0.0693 z M 56.578217,470.07679 c -9.84926,-2.35133 -19.31851,-10.14716 -24.0643,-19.81164 -2.81259,-5.72764 -2.81904,-5.78772 -3.14309,-29.23943 -0.44045,-31.87603 1.61907,-41.08641 12.98779,-58.08283 24.40358,-36.48376 80.203933,-63.04367 153.336913,-72.98546 16.99709,-2.31061 66.68617,-3.88855 77.98718,-2.47658 l 5.56312,0.69507 -4.55772,5.06928 c -10.95434,12.18386 -22.14592,32.62435 -26.98206,49.28052 -12.23251,42.12996 -4.08068,84.48405 23.12263,120.13724 l 6.38077,8.36276 -108.75696,-0.10236 C 108.63616,470.86706 58.292747,470.48611 56.578217,470.07679 Z M 227.69553,266.42824 c -24.19206,-4.28807 -45.51269,-15.42574 -62.99474,-32.90778 -45.73407,-45.73408 -45.79127,-119.58924 -0.12786,-165.083546 12.68881,-12.64183 27.78974,-22.42613 42.61812,-27.61345 13.58715,-4.7531 20.35089,-5.95277 36.50448,-6.47472 13.83522,-0.44704 17.41718,-0.22452 26.47444,1.64467 42.00846,8.66948 75.47492,38.037 88.35381,77.532306 14.25179,43.70555 3.39532,88.85069 -29.12881,121.12812 -25.98211,25.78505 -65.62048,38.16943 -101.69944,31.7744 z"
       id="path184" />
  </g>
</svg>
